<?xml version="1.0" encoding="UTF-8" standalone="no"?>
<svg
   xmlns:dc="http://purl.org/dc/elements/1.1/"
   xmlns:cc="http://creativecommons.org/ns#"
   xmlns:rdf="http://www.w3.org/1999/02/22-rdf-syntax-ns#"
   xmlns:svg="http://www.w3.org/2000/svg"
   xmlns="http://www.w3.org/2000/svg"
   xmlns:sodipodi="http://sodipodi.sourceforge.net/DTD/sodipodi-0.dtd"
   xmlns:inkscape="http://www.inkscape.org/namespaces/inkscape"
   width="24px"
   height="24px"
   viewBox="0 0 24 24"
   version="1.1"
   id="svg19"
   sodipodi:docname="emblem-shared.svg"
   inkscape:version="0.92.2pre0 (973e216, 2017-07-25)">
  <metadata
     id="metadata23">
    <rdf:RDF>
      <cc:Work
         rdf:about="">
        <dc:format>image/svg+xml</dc:format>
        <dc:type
           rdf:resource="http://purl.org/dc/dcmitype/StillImage" />
      </cc:Work>
    </rdf:RDF>
  </metadata>
  <sodipodi:namedview
     pagecolor="#ffffff"
     bordercolor="#666666"
     borderopacity="1"
     objecttolerance="10"
     gridtolerance="10"
     guidetolerance="10"
     inkscape:pageopacity="0"
     inkscape:pageshadow="2"
     inkscape:window-width="776"
     inkscape:window-height="480"
     id="namedview21"
     showgrid="false"
     inkscape:zoom="13.906433"
     inkscape:cx="8.4508365"
     inkscape:cy="12.651611"
     inkscape:window-x="0"
     inkscape:window-y="0"
     inkscape:window-maximized="0"
     inkscape:current-layer="svg19" />
  <!-- Generator: Sketch 41.2 (35397) - http://www.bohemiancoding.com/sketch -->
  <title
     id="title2">脚标-分享-24px</title>
  <desc
     id="desc4">Created with Sketch.</desc>
  <defs
     id="defs6" />
  <g
     id="Page-1"
     stroke="none"
     stroke-width="1"
     fill="none"
     fill-rule="evenodd">
    <g
       id="脚标-分享">
      <path
         d="M21.5,11.5 C21.5,16.7471667 17.2471667,21 12,21 C6.75283333,21 2.5,16.7471667 2.5,11.5 C2.5,6.25283333 6.75283333,2 12,2 C17.2471667,2 21.5,6.25283333 21.5,11.5"
         id="Fill-4"
         fill="#000000"
         opacity="0.1"
         style="fill:#000000;fill-opacity:0.16078432" />
      <path
         d="M20.964,10.9975 C20.964,15.9685 16.935,19.9975 11.964,19.9975 C6.993,19.9975 2.964,15.9685 2.964,10.9975 C2.964,6.0265 6.993,1.9975 11.964,1.9975 C16.935,1.9975 20.964,6.0265 20.964,10.9975"
         id="path9"
         fill="#FFFFFF"
         style="fill:#7ed321;fill-opacity:1" />
      <circle
         id="Oval-2"
         fill="#7ED321"
         cx="8"
         cy="11"
         r="2"
         style="fill:#ffffff;fill-opacity:1" />
      <polygon
         id="Path-3"
         fill="#7ED321"
         points="7.6278958 10.3488176 6.48832667 11 7.6278958 11.6511824 14.6278958 15.6511824 15.3721042 14.3488176 8.3721042 10.3488176 8.3721042 11.6511824 15.3721042 7.65118236 14.6278958 6.34881764"
         style="fill:#ffffff;fill-opacity:1" />
      <circle
         id="circle13"
         fill="#7ED321"
         cx="15"
         cy="7"
         r="2"
         style="fill:#ffffff;fill-opacity:1" />
      <circle
         id="circle15"
         fill="#7ED321"
         cx="15"
         cy="15"
         r="2"
         style="fill:#ffffff;fill-opacity:1" />
    </g>
  </g>
</svg>
