<?xml version="1.0" encoding="UTF-8" standalone="no"?>
<!-- Created using Karbon, part of Calligra: http://www.calligra.org/karbon -->

<svg
   xmlns:dc="http://purl.org/dc/elements/1.1/"
   xmlns:cc="http://creativecommons.org/ns#"
   xmlns:rdf="http://www.w3.org/1999/02/22-rdf-syntax-ns#"
   xmlns:svg="http://www.w3.org/2000/svg"
   xmlns="http://www.w3.org/2000/svg"
   xmlns:sodipodi="http://sodipodi.sourceforge.net/DTD/sodipodi-0.dtd"
   xmlns:inkscape="http://www.inkscape.org/namespaces/inkscape"
   width="48"
   height="48"
   id="svg2"
   version="1.1"
   inkscape:version="0.92.2pre0 (973e216, 2017-07-25)"
   sodipodi:docname="brave.svg">
  <metadata
     id="metadata12">
    <rdf:RDF>
      <cc:Work
         rdf:about="">
        <dc:format>image/svg+xml</dc:format>
        <dc:type
           rdf:resource="http://purl.org/dc/dcmitype/StillImage" />
        <dc:title></dc:title>
      </cc:Work>
    </rdf:RDF>
  </metadata>
  <sodipodi:namedview
     pagecolor="#ffffff"
     bordercolor="#666666"
     borderopacity="1"
     objecttolerance="10"
     gridtolerance="10000"
     guidetolerance="10"
     inkscape:pageopacity="0"
     inkscape:pageshadow="2"
     inkscape:window-width="1366"
     inkscape:window-height="740"
     id="namedview10"
     showgrid="true"
     inkscape:showpageshadow="false"
     borderlayer="true"
     fit-margin-top="0"
     fit-margin-left="0"
     fit-margin-right="0"
     fit-margin-bottom="0"
     inkscape:zoom="12.477488"
     inkscape:cx="37.063237"
     inkscape:cy="12.750407"
     inkscape:window-x="0"
     inkscape:window-y="0"
     inkscape:window-maximized="1"
     inkscape:current-layer="g12"
     showguides="true">
    <inkscape:grid
       type="xygrid"
       id="grid4141"
       originx="20"
       originy="0"
       spacingx="1"
       spacingy="1" />
    <sodipodi:guide
       position="0,48"
       orientation="48,0"
       id="guide4147"
       inkscape:locked="false" />
    <sodipodi:guide
       position="48,0"
       orientation="-48,0"
       id="guide4151"
       inkscape:locked="false" />
    <sodipodi:guide
       position="48,48"
       orientation="0,-48"
       id="guide4153"
       inkscape:locked="false" />
    <sodipodi:guide
       position="4,37"
       orientation="40,0"
       id="guide4219"
       inkscape:locked="false" />
    <sodipodi:guide
       position="6.9999962,3.999959"
       orientation="0,34"
       id="guide4221"
       inkscape:locked="false" />
    <sodipodi:guide
       position="44,32"
       orientation="-29,0"
       id="guide4223"
       inkscape:locked="false" />
    <sodipodi:guide
       position="29.999996,43.999958"
       orientation="0,-23"
       id="guide4227"
       inkscape:locked="false" />
  </sodipodi:namedview>
  <defs
     id="defs4" />
  <g
     inkscape:groupmode="layer"
     id="layer1"
     inkscape:label="Layer 1">
    <g
       transform="matrix(3.6297292,0,0,3.6297292,1.0181546,-1031.5034)"
       id="g12">
      <path
         inkscape:connector-curvature="0"
         style="opacity:0.2;fill-opacity:1;fill-rule:nonzero;stroke-width:1.02495027;"
         d="m 4.494738,285.36151 -0.9327955,1.11043 -0.6218632,-0.10094 -0.7255072,0.7066 0.051823,0.5048 -0.7773291,1.31235 c -0.1036444,0.20185 0,0.30283 0,0.30283 l 1.2437264,4.10528 c 0.1036442,0.6057 0.7255075,1.00951 0.7255075,1.00951 l 2.5910968,1.71616 c 0,0 0.2072876,0.10094 0.3109319,0.10094 0.103644,0 0.3109313,-0.10094 0.3109313,-0.10094 l 2.5910975,-1.71616 c 0,0 0.621868,-0.40381 0.7255112,-1.00951 l 1.2437204,-4.10528 c 0,0 0.103642,-0.10099 0,-0.30283 l -0.777331,-1.31235 0.05182,-0.5048 -0.7255046,-0.7066 -0.6218647,0.10094 -0.932795,-1.11043 H 6.3603324 Z"
         id="path2" />
      <path
         inkscape:connector-curvature="0"
         style="fill:#f76f31;fill-rule:evenodd"
         d="m 4.5431497,285.35833 -0.903425,1.0914 -0.6022833,-0.0992 -0.7026638,0.69453 0.05019,0.4961 -0.7528541,1.28984 c -0.1003808,0.19844 0,0.29766 0,0.29766 l 1.2045665,4.03489 c 0.1003808,0.59531 0.7026639,0.99219 0.7026639,0.99219 l 2.5095136,1.68672 c 0,0 0.2007611,0.0992 0.3011416,0.0992 0.1003808,0 0.3011417,-0.0992 0.3011417,-0.0992 l 2.5095137,-1.68672 c 0,0 0.6022833,-0.39688 0.7026637,-0.99219 l 1.2045678,-4.03489 c 0,0 0.100382,-0.0992 0,-0.29766 l -0.752854,-1.28984 0.05019,-0.4961 -0.7026648,-0.69453 -0.6022832,0.0992 -0.903425,-1.0914 H 6.3499994 Z"
         id="path4" />
      <path
         inkscape:connector-curvature="0"
         style="opacity:0.2;stroke-width:1.04362965;fill:#ffffff;fill-opacity:1"
         d="m 6.7825585,293.47276 c 0,0 0.474364,-0.31903 0.8966766,-0.62728 0.2375846,-0.17342 0.2750294,-0.21765 0.2362011,-0.27899 -0.031083,-0.0492 -0.7975683,-0.43364 -1.1640112,-0.584 -0.3854351,-0.15816 -0.425926,-0.15834 -0.7998148,-0.003 -0.3352706,0.13874 -1.0895975,0.51923 -1.1528991,0.58149 -0.06536,0.0643 -0.032447,0.12327 0.1322782,0.23695 0.3393382,0.2342 0.989897,0.68462 0.989897,0.68462 0.4423507,0.38452 0.408002,0.38488 0.8616722,-0.009 z m -1.7781267,-1.37562 c 0.4600397,-0.22059 0.5288142,-0.26618 0.8804874,-0.58388 0.2956429,-0.26708 0.3503503,-0.34654 0.3082875,-0.44772 -0.014251,-0.0339 -0.2364002,-0.24327 -0.4936742,-0.46447 -0.6080812,-0.52286 -0.5826253,-0.44914 -0.3512441,-1.01667 0.1374052,-0.33699 0.1732755,-0.44978 0.1727887,-0.54322 -8.301e-4,-0.14114 -0.052083,-0.24706 -0.1552854,-0.32027 -0.041846,-0.0296 -0.4092722,-0.18082 -0.8164995,-0.33587 -0.4072272,-0.15503 -0.7380819,-0.29215 -0.7352319,-0.30471 0.00651,-0.0286 0.4555903,-0.0786 0.7816057,-0.0866 l 0.2466046,-0.006 0.4533271,0.16145 c 0.3955703,0.1409 0.4576628,0.16979 0.487341,0.227 0.018707,0.036 0.033753,0.0843 0.033444,0.10762 -2.767e-4,0.0233 -0.073619,0.35801 -0.1629055,0.74411 -0.1563891,0.67626 -0.1607941,0.7036 -0.1201395,0.7449 0.064505,0.0656 0.696841,0.2177 0.8942525,0.20234 0.2254959,-0.0179 0.6861361,-0.15784 0.7326619,-0.20488 0.037605,-0.038 0.030479,-0.0811 -0.1226936,-0.74236 -0.08944,-0.3861 -0.1628666,-0.72094 -0.1631739,-0.74411 -2.768e-4,-0.0233 0.014857,-0.0719 0.033689,-0.10807 0.029707,-0.057 0.088085,-0.085 0.4403668,-0.21091 0.5679246,-0.20267 0.5563783,-0.201 1.0724426,-0.15425 0.2406419,0.022 0.447179,0.049 0.4589687,0.0598 0.012646,0.0119 -0.0017,0.0294 -0.03523,0.0427 -0.031168,0.0115 -0.3631642,0.13915 -0.7377695,0.28246 -0.3746024,0.14331 -0.7204373,0.28651 -0.7685183,0.3182 -0.1130122,0.0747 -0.1678691,0.18087 -0.1686354,0.32706 -5.534e-4,0.0925 0.035141,0.20437 0.1688212,0.53063 0.093189,0.22741 0.1694351,0.43484 0.1694351,0.46089 0,0.10554 -0.077123,0.19072 -0.5046203,0.55746 -0.2456143,0.21071 -0.4636365,0.41411 -0.4844938,0.45203 -0.020861,0.0378 -0.032777,0.0956 -0.02648,0.12854 0.010789,0.056 0.3049535,0.34622 0.6045917,0.59612 0.1258066,0.10492 0.8879664,0.59149 1.0100652,0.61122 0.1022499,0.017 0.2115393,-0.13913 0.3903879,-0.29027 0.175362,-0.14821 0.279877,-0.29655 0.3509316,-0.49806 0.066642,-0.18901 0.049886,-0.31635 -0.081919,-0.62257 -0.1005736,-0.23367 -0.1272755,-0.36202 -0.093533,-0.4496 0.00776,-0.0204 0.2798992,-0.28287 0.6047691,-0.58382 0.7076705,-0.65562 0.8765698,-0.77309 0.9153668,-0.89023 0.04306,-0.13004 0.01268,-0.30135 -0.08402,-0.47363 -0.2313354,-0.41212 -1.1918048,-1.7025 -1.2733933,-1.7025 -0.4202529,0.0687 -0.7719526,0.22018 -1.2147505,0.28986 -0.034783,5e-5 -0.1827469,-0.0369 -0.328807,-0.082 -0.6236396,-0.19298 -0.8259155,-0.20775 -0.9466668,-0.20775 -0.1207512,0 -0.323027,0.0149 -0.9466664,0.20775 -0.1460602,0.0455 -0.2956345,0.0821 -0.3323819,0.0821 -0.4362283,-0.0645 -0.759599,-0.23745 -1.2111876,-0.28996 -0.070403,0.0478 -0.6950671,0.92165 -0.9536971,1.30359 -0.3041345,0.44912 -0.3900864,0.50686 -0.4148228,0.67785 -0.034611,0.23926 0.053387,0.27955 0.9619732,1.11967 0.3056291,0.28258 0.5619236,0.52997 0.569541,0.54975 0.034088,0.0887 0.00719,0.22211 -0.091946,0.45604 -0.136105,0.32126 -0.1482959,0.41046 -0.082603,0.60443 0.071439,0.21092 0.1925363,0.38146 0.375452,0.5287 0.1700936,0.1369 0.2358774,0.27407 0.3362364,0.27635 0.03592,8e-4 0.2380328,-0.18467 0.4491462,-0.28584 z"
         id="path6" />
      <path
         inkscape:connector-curvature="0"
         style="fill:#ffffff"
         d="m 6.7679532,293.27583 c 0,0 0.4545328,-0.30569 0.8591903,-0.60107 0.2276522,-0.16618 0.2635315,-0.20855 0.2263266,-0.26732 -0.029784,-0.047 -0.7642253,-0.41553 -1.1153489,-0.5596 -0.3693216,-0.15153 -0.40812,-0.15171 -0.7663781,-0.003 -0.3212544,0.13296 -1.0440461,0.49754 -1.1047013,0.5572 -0.062628,0.0616 -0.031089,0.1181 0.1267483,0.22703 0.3251519,0.22441 0.9485136,0.65599 0.9485136,0.65599 0.4238579,0.36843 0.3909452,0.36879 0.8256495,-0.009 z m -1.703791,-1.31813 c 0.4408073,-0.21135 0.5067067,-0.25505 0.8436779,-0.55947 0.2832834,-0.25591 0.3357039,-0.33204 0.2953995,-0.429 -0.013654,-0.0328 -0.2265174,-0.23311 -0.4730359,-0.44506 -0.5826598,-0.50097 -0.5582682,-0.43036 -0.3365601,-0.97414 0.131661,-0.32292 0.1660318,-0.43099 0.1655652,-0.52052 -7.954e-4,-0.13525 -0.049907,-0.23673 -0.1487935,-0.30689 -0.040098,-0.0285 -0.3921622,-0.17326 -0.7823651,-0.32183 -0.3902029,-0.14856 -0.707226,-0.27994 -0.7044952,-0.29197 0.00623,-0.0275 0.436544,-0.0753 0.7489302,-0.0832 l 0.2362952,-0.006 0.4343754,0.15471 c 0.3790332,0.135 0.4385299,0.16271 0.4669672,0.2175 0.017923,0.0346 0.032343,0.081 0.032045,0.10314 -2.651e-4,0.0222 -0.070542,0.34304 -0.1560949,0.713 -0.1498513,0.64799 -0.1540721,0.67417 -0.1151172,0.71375 0.061808,0.0628 0.6677091,0.2086 0.8568678,0.19388 0.2160689,-0.0168 0.6574516,-0.15125 0.7020323,-0.19631 0.036034,-0.0365 0.029204,-0.0778 -0.1175643,-0.71132 -0.085699,-0.36996 -0.1560579,-0.6908 -0.1563522,-0.713 -2.652e-4,-0.0222 0.014237,-0.0688 0.032279,-0.10358 0.028464,-0.0548 0.084403,-0.0817 0.421957,-0.20208 0.5441822,-0.19419 0.5331186,-0.19259 1.0276083,-0.14779 0.2305819,0.0209 0.4284843,0.0468 0.4397813,0.0576 0.012116,0.0116 -0.00159,0.0283 -0.033756,0.0406 -0.029864,0.0115 -0.3479819,0.13331 -0.7069266,0.27064 -0.358942,0.13734 -0.690319,0.27455 -0.7363898,0.30491 -0.1082876,0.0714 -0.1608513,0.17331 -0.1615857,0.31337 -5.302e-4,0.0886 0.033671,0.19585 0.1617634,0.50845 0.089294,0.21791 0.1623519,0.41666 0.1623519,0.44165 0,0.1011 -0.073898,0.18274 -0.4835243,0.53414 -0.2353461,0.2019 -0.4442539,0.39681 -0.4642391,0.43313 -0.01999,0.0363 -0.031407,0.0917 -0.025373,0.12316 0.01034,0.0538 0.2922048,0.33177 0.5793165,0.57122 0.1205471,0.10054 0.8508443,0.56674 0.9678387,0.58565 0.097977,0.0159 0.2026958,-0.1333 0.3740673,-0.27812 0.1680309,-0.14203 0.2681766,-0.28417 0.3362606,-0.47724 0.063856,-0.1811 0.0478,-0.30313 -0.078495,-0.59655 -0.09637,-0.2239 -0.1219548,-0.34688 -0.089625,-0.43081 0.00743,-0.0193 0.2681978,-0.27103 0.5794863,-0.55942 0.6780861,-0.6282 0.8399226,-0.74075 0.8770977,-0.85298 0.04129,-0.12462 0.01216,-0.28876 -0.080494,-0.45385 -0.221663,-0.39491 -1.1419794,-1.63132 -1.2201568,-1.63132 -0.402684,0.0657 -0.7396808,0.21098 -1.1639671,0.27774 -0.033329,5e-5 -0.1751071,-0.0353 -0.3150612,-0.0787 -0.5975678,-0.18491 -0.7913874,-0.19907 -0.9070906,-0.19907 -0.1157031,0 -0.3095227,0.0141 -0.9070904,0.19907 -0.1399542,0.0433 -0.2832754,0.0788 -0.3184867,0.0788 -0.4179914,-0.0617 -0.7278432,-0.22754 -1.1605528,-0.27784 -0.067459,0.0456 -0.6660094,0.88314 -0.9138271,1.24909 -0.29142,0.43032 -0.3737786,0.48566 -0.3974809,0.6495 -0.033165,0.22927 0.051155,0.26786 0.9217575,1.07287 0.2928518,0.27077 0.5384316,0.50781 0.5457305,0.52676 0.032666,0.0849 0.00686,0.21285 -0.088101,0.43698 -0.130415,0.30784 -0.1420964,0.3933 -0.079151,0.57916 0.06845,0.20211 0.1844872,0.36552 0.3597559,0.50661 0.1629829,0.13119 0.2260164,0.26261 0.3221799,0.26478 0.034416,7.9e-4 0.2280816,-0.17693 0.4303693,-0.27389 z"
         id="path8" />
    </g>
  </g>
</svg>
