<?xml version="1.0" encoding="UTF-8" standalone="no"?>
<svg
   xmlns:dc="http://purl.org/dc/elements/1.1/"
   xmlns:cc="http://creativecommons.org/ns#"
   xmlns:rdf="http://www.w3.org/1999/02/22-rdf-syntax-ns#"
   xmlns:svg="http://www.w3.org/2000/svg"
   xmlns="http://www.w3.org/2000/svg"
   xmlns:sodipodi="http://sodipodi.sourceforge.net/DTD/sodipodi-0.dtd"
   xmlns:inkscape="http://www.inkscape.org/namespaces/inkscape"
   width="256px"
   height="256px"
   viewBox="0 0 256 256"
   version="1.1"
   id="svg30"
   sodipodi:docname="media-cdr.svg"
   inkscape:version="0.92.2pre0 (973e216, 2017-07-25)">
  <circle
     style="opacity:1;fill:#e0e0e0;fill-opacity:1;stroke:none;stroke-width:18.54237366;stroke-linecap:round;stroke-linejoin:round;stroke-miterlimit:4;stroke-dasharray:none;stroke-opacity:1"
     id="circle4263"
     cx="180.2523"
     cy="-2.0613961"
     r="111.25423"
     transform="rotate(45)" />
  <path
     inkscape:connector-curvature="0"
     style="opacity:0.35;fill:#9e9e9e;fill-opacity:1;fill-rule:evenodd;stroke:none;stroke-width:9.27118683px;stroke-linecap:butt;stroke-linejoin:miter;stroke-opacity:1"
     d="M 61.119622,37.869604 A 111.25424,111.25424 0 0 0 32.382572,70.843876 L 128.91518,126.00021 Z"
     id="path4317" />
  <path
     inkscape:connector-curvature="0"
     style="opacity:0.35;fill:#bdbdbd;fill-opacity:1;fill-rule:evenodd;stroke:none;stroke-width:9.27118683px;stroke-linecap:butt;stroke-linejoin:miter;stroke-opacity:1"
     d="M 81.925462,25.302789 A 111.25424,111.25424 0 0 0 47.013722,50.907208 L 128.91518,126.00021 Z"
     id="path4319" />
  <path
     id="path4335"
     d="m 196.71076,214.13025 a 111.25424,111.25424 0 0 0 28.73705,-32.97392 l -96.53263,-55.15612 z"
     style="opacity:0.35;fill:#9e9e9e;fill-opacity:1;fill-rule:evenodd;stroke:none;stroke-width:9.27118683px;stroke-linecap:butt;stroke-linejoin:miter;stroke-opacity:1"
     inkscape:connector-curvature="0" />
  <path
     id="path4337"
     d="M 175.90489,226.69735 A 111.25424,111.25424 0 0 0 210.81676,201.0931 L 128.91518,126.00021 Z"
     style="opacity:0.35;fill:#bdbdbd;fill-opacity:1;fill-rule:evenodd;stroke:none;stroke-width:9.27118683px;stroke-linecap:butt;stroke-linejoin:miter;stroke-opacity:1"
     inkscape:connector-curvature="0" />
  <path
     style="fill:none;fill-rule:evenodd;stroke:#fafafa;stroke-width:9.27118683px;stroke-linecap:round;stroke-linejoin:round;stroke-opacity:1"
     d="m 171.52724,37.498386 c 16.38932,3.277365 42.61222,29.499988 45.89003,45.88959"
     id="path4377"
     inkscape:connector-curvature="0"
     sodipodi:nodetypes="cc" />
  <path
     sodipodi:nodetypes="cc"
     inkscape:connector-curvature="0"
     id="path4381"
     d="m 86.303412,214.50108 c -16.38922,-3.27735 -42.61212,-29.49999 -45.88997,-45.88957"
     style="fill:none;fill-rule:evenodd;stroke:#fafafa;stroke-width:9.27118683px;stroke-linecap:round;stroke-linejoin:round;stroke-opacity:1" />
  <metadata
     id="metadata34">
    <rdf:RDF>
      <cc:Work
         rdf:about="">
        <dc:format>image/svg+xml</dc:format>
        <dc:type
           rdf:resource="http://purl.org/dc/dcmitype/StillImage" />
      </cc:Work>
    </rdf:RDF>
  </metadata>
  <sodipodi:namedview
     pagecolor="#ffffff"
     bordercolor="#666666"
     borderopacity="1"
     objecttolerance="10"
     gridtolerance="10"
     guidetolerance="10"
     inkscape:pageopacity="0"
     inkscape:pageshadow="2"
     inkscape:window-width="1366"
     inkscape:window-height="740"
     id="namedview32"
     showgrid="false"
     inkscape:zoom="2.6074563"
     inkscape:cx="117.53492"
     inkscape:cy="112.7692"
     inkscape:window-x="0"
     inkscape:window-y="0"
     inkscape:window-maximized="1"
     inkscape:current-layer="svg30" />
  <!-- Generator: Sketch 39.1 (31720) - http://www.bohemiancoding.com/sketch -->
  <circle
     r="37.084747"
     cy="126.00003"
     cx="128.91519"
     id="circle4265"
     style="opacity:1;fill:#9e9e9e;fill-opacity:1;stroke:none;stroke-width:18.54237366;stroke-linecap:round;stroke-linejoin:round;stroke-miterlimit:4;stroke-dasharray:none;stroke-opacity:1" />
  <title
     id="title2">media-cdr-256px</title>
  <circle
     style="opacity:1;fill:#bdbdbd;fill-opacity:1;stroke:none;stroke-width:18.54237366;stroke-linecap:round;stroke-linejoin:round;stroke-miterlimit:4;stroke-dasharray:none;stroke-opacity:1"
     id="circle4267"
     cx="128.91519"
     cy="126.00003"
     r="27.813559" />
  <desc
     id="desc4">Created with Sketch.</desc>
  <circle
     r="9.2711868"
     cy="126.00003"
     cx="128.91519"
     id="circle4269"
     style="opacity:1;fill:#424242;fill-opacity:1;stroke:none;stroke-width:18.54237366;stroke-linecap:round;stroke-linejoin:round;stroke-miterlimit:4;stroke-dasharray:none;stroke-opacity:1" />
  <defs
     id="defs13">
    <linearGradient
       x1="28.8395889%"
       y1="5.6059543%"
       x2="73.7075197%"
       y2="93.9492692%"
       id="linearGradient-1">
      <stop
         stop-color="#9EC9CE"
         offset="0%"
         id="stop6" />
      <stop
         stop-color="#E6BDDF"
         offset="47.7870472%"
         id="stop8" />
      <stop
         stop-color="#99D6CA"
         offset="100%"
         id="stop10" />
    </linearGradient>
  </defs>
  <g
     id="Page-1"
     stroke="none"
     stroke-width="1"
     fill="none"
     fill-rule="evenodd">
    <g
       id="media-cdr-256px">
      <g
         id="Group"
         transform="translate(13.333333, 14.666667)">
        <g
           id="Group-4"
           transform="translate(77.333333, 76.000000)" />
      </g>
      <path
         d="M96.16,193.704 C92.64,193.704 89.888,194.888 87.968,197.32 C86.208,199.496 85.344,202.28 85.344,205.672 C85.344,209.064 86.176,211.816 87.904,213.928 C89.792,216.264 92.512,217.448 96.064,217.448 C98.496,217.448 100.608,216.744 102.368,215.368 C104.256,213.896 105.44,211.816 105.952,209.16 L103.424,209.16 C102.976,211.144 102.048,212.648 100.704,213.672 C99.424,214.632 97.888,215.112 96.064,215.112 C93.376,215.112 91.36,214.216 89.952,212.456 C88.608,210.792 87.968,208.52 87.968,205.672 C87.968,202.824 88.64,200.552 89.984,198.824 C91.424,196.968 93.472,196.04 96.128,196.04 C97.92,196.04 99.424,196.456 100.672,197.32 C101.952,198.216 102.784,199.496 103.104,201.16 L105.632,201.16 C105.312,198.888 104.288,197.064 102.56,195.72 C100.832,194.376 98.688,193.704 96.16,193.704 L96.16,193.704 Z M109.6,194.152 L109.6,217 L117.536,217 C121.12,217 123.872,215.944 125.792,213.864 C127.616,211.88 128.544,209.096 128.544,205.576 C128.544,201.992 127.68,199.208 125.984,197.288 C124.128,195.176 121.408,194.152 117.792,194.152 L109.6,194.152 Z M112.224,196.424 L117.376,196.424 C120.384,196.424 122.56,197.192 123.968,198.76 C125.28,200.232 125.952,202.504 125.952,205.576 C125.952,208.552 125.216,210.824 123.808,212.36 C122.304,213.928 120.064,214.728 117.088,214.728 L112.224,214.728 L112.224,196.424 Z M131.488,207.624 L131.488,209.8 L147.648,209.8 L147.648,207.624 L131.488,207.624 Z M151.552,194.152 L151.552,217 L154.176,217 L154.176,207.176 L161.088,207.176 C162.528,207.176 163.616,207.432 164.384,208.008 C165.216,208.584 165.696,209.576 165.824,210.92 L166.112,213.96 C166.208,215.24 166.528,216.232 167.04,217 L169.888,217 C169.216,216.168 168.8,215.048 168.672,213.64 L168.32,210.12 C168.064,207.816 166.848,206.44 164.672,205.96 L164.672,205.896 C165.984,205.576 167.008,204.936 167.776,203.912 C168.48,202.92 168.832,201.8 168.832,200.52 C168.832,198.408 168.128,196.808 166.784,195.72 C165.472,194.664 163.68,194.152 161.408,194.152 L151.552,194.152 Z M154.176,196.424 L161.088,196.424 C162.848,196.424 164.16,196.776 164.992,197.48 C165.76,198.152 166.176,199.208 166.176,200.616 C166.176,201.96 165.76,202.984 164.96,203.72 C164.064,204.488 162.752,204.904 161.088,204.904 L154.176,204.904 L154.176,196.424 Z"
         id="CD-R"
         fill="#8F859E" />
    </g>
  </g>
</svg>
