<?xml version="1.0" encoding="UTF-8" standalone="no"?>
<svg
   xmlns:dc="http://purl.org/dc/elements/1.1/"
   xmlns:cc="http://creativecommons.org/ns#"
   xmlns:rdf="http://www.w3.org/1999/02/22-rdf-syntax-ns#"
   xmlns:svg="http://www.w3.org/2000/svg"
   xmlns="http://www.w3.org/2000/svg"
   xmlns:sodipodi="http://sodipodi.sourceforge.net/DTD/sodipodi-0.dtd"
   xmlns:inkscape="http://www.inkscape.org/namespaces/inkscape"
   width="256px"
   height="256px"
   viewBox="0 0 256 256"
   version="1.1"
   id="svg30"
   sodipodi:docname="media-cdrw.svg"
   inkscape:version="0.92.2pre0 (973e216, 2017-07-25)">
  <circle
     style="opacity:1;fill:#e0e0e0;fill-opacity:1;stroke:none;stroke-width:18.54237366;stroke-linecap:round;stroke-linejoin:round;stroke-miterlimit:4;stroke-dasharray:none;stroke-opacity:1"
     id="circle4263"
     cx="181.13919"
     cy="-0.11984871"
     r="111.25423"
     transform="rotate(45)" />
  <path
     inkscape:connector-curvature="0"
     style="opacity:0.35;fill:#9e9e9e;fill-opacity:1;fill-rule:evenodd;stroke:none;stroke-width:9.27118683px;stroke-linecap:butt;stroke-linejoin:miter;stroke-opacity:1"
     d="M 60.373859,39.869604 A 111.25424,111.25424 0 0 0 31.636809,72.843876 L 128.16942,128.00021 Z"
     id="path4317" />
  <path
     inkscape:connector-curvature="0"
     style="opacity:0.35;fill:#bdbdbd;fill-opacity:1;fill-rule:evenodd;stroke:none;stroke-width:9.27118683px;stroke-linecap:butt;stroke-linejoin:miter;stroke-opacity:1"
     d="M 81.179699,27.302789 A 111.25424,111.25424 0 0 0 46.267959,52.907208 L 128.16942,128.00021 Z"
     id="path4319" />
  <path
     id="path4335"
     d="m 195.965,216.13025 a 111.25424,111.25424 0 0 0 28.73705,-32.97392 l -96.53263,-55.15612 z"
     style="opacity:0.35;fill:#9e9e9e;fill-opacity:1;fill-rule:evenodd;stroke:none;stroke-width:9.27118683px;stroke-linecap:butt;stroke-linejoin:miter;stroke-opacity:1"
     inkscape:connector-curvature="0" />
  <path
     id="path4337"
     d="M 175.15913,228.69735 A 111.25424,111.25424 0 0 0 210.071,203.0931 l -81.90158,-75.09289 z"
     style="opacity:0.35;fill:#bdbdbd;fill-opacity:1;fill-rule:evenodd;stroke:none;stroke-width:9.27118683px;stroke-linecap:butt;stroke-linejoin:miter;stroke-opacity:1"
     inkscape:connector-curvature="0" />
  <path
     style="fill:none;fill-rule:evenodd;stroke:#fafafa;stroke-width:9.27118683px;stroke-linecap:round;stroke-linejoin:round;stroke-opacity:1"
     d="m 170.78148,39.498386 c 16.38932,3.277365 42.61222,29.499988 45.89003,45.88959"
     id="path4377"
     inkscape:connector-curvature="0"
     sodipodi:nodetypes="cc" />
  <path
     sodipodi:nodetypes="cc"
     inkscape:connector-curvature="0"
     id="path4381"
     d="m 85.557649,216.50108 c -16.38922,-3.27735 -42.61212,-29.49999 -45.88997,-45.88957"
     style="fill:none;fill-rule:evenodd;stroke:#fafafa;stroke-width:9.27118683px;stroke-linecap:round;stroke-linejoin:round;stroke-opacity:1" />
  <metadata
     id="metadata34">
    <rdf:RDF>
      <cc:Work
         rdf:about="">
        <dc:format>image/svg+xml</dc:format>
        <dc:type
           rdf:resource="http://purl.org/dc/dcmitype/StillImage" />
      </cc:Work>
    </rdf:RDF>
  </metadata>
  <sodipodi:namedview
     pagecolor="#ffffff"
     bordercolor="#666666"
     borderopacity="1"
     objecttolerance="10"
     gridtolerance="10"
     guidetolerance="10"
     inkscape:pageopacity="0"
     inkscape:pageshadow="2"
     inkscape:window-width="1366"
     inkscape:window-height="740"
     id="namedview32"
     showgrid="false"
     inkscape:zoom="1.3037281"
     inkscape:cx="90.924555"
     inkscape:cy="56.602359"
     inkscape:window-x="0"
     inkscape:window-y="0"
     inkscape:window-maximized="1"
     inkscape:current-layer="svg30" />
  <!-- Generator: Sketch 39.1 (31720) - http://www.bohemiancoding.com/sketch -->
  <circle
     r="37.084747"
     cy="128.00003"
     cx="128.16943"
     id="circle4265"
     style="opacity:1;fill:#9e9e9e;fill-opacity:1;stroke:none;stroke-width:18.54237366;stroke-linecap:round;stroke-linejoin:round;stroke-miterlimit:4;stroke-dasharray:none;stroke-opacity:1" />
  <title
     id="title2">media-cdrw-256px</title>
  <circle
     style="opacity:1;fill:#bdbdbd;fill-opacity:1;stroke:none;stroke-width:18.54237366;stroke-linecap:round;stroke-linejoin:round;stroke-miterlimit:4;stroke-dasharray:none;stroke-opacity:1"
     id="circle4267"
     cx="128.16943"
     cy="128.00003"
     r="27.813559" />
  <desc
     id="desc4">Created with Sketch.</desc>
  <circle
     r="9.2711868"
     cy="128.00003"
     cx="128.16943"
     id="circle4269"
     style="opacity:1;fill:#424242;fill-opacity:1;stroke:none;stroke-width:18.54237366;stroke-linecap:round;stroke-linejoin:round;stroke-miterlimit:4;stroke-dasharray:none;stroke-opacity:1" />
  <defs
     id="defs13">
    <linearGradient
       x1="28.8395889%"
       y1="5.6059543%"
       x2="73.7075197%"
       y2="93.9492692%"
       id="linearGradient-1">
      <stop
         stop-color="#9EC9CE"
         offset="0%"
         id="stop6" />
      <stop
         stop-color="#E6BDDF"
         offset="47.7870472%"
         id="stop8" />
      <stop
         stop-color="#99D6CA"
         offset="100%"
         id="stop10" />
    </linearGradient>
  </defs>
  <g
     id="Page-1"
     stroke="none"
     stroke-width="1"
     fill="none"
     fill-rule="evenodd">
    <g
       id="media-cdrw-256px">
      <g
         id="Group"
         transform="translate(13.333333, 14.666667)">
        <g
           id="Group-4"
           transform="translate(77.333333, 76.000000)" />
        <path
           d="M114.666667,6.66666667 C103.584946,6.66666667 92.8791285,8.27609682 82.7702045,11.2739659 C82.7702045,11.2739658 109.517071,97.3333333 109.517072,97.6855917 C111.200375,97.453351 112.919505,97.3333333 114.666667,97.3333333 C116.551878,97.3333333 118.404453,97.4730664 120.214599,97.7427403 C120.214599,97.4730682 146.881416,11.2739658 146.881416,11.3688738 C136.679023,8.31007803 125.864765,6.66666667 114.666667,6.66666667 Z M114.666667,220.048422 C103.584946,220.048422 92.8791285,218.438992 82.7702045,215.441123 C82.7702045,215.441123 109.463551,128.988356 109.463552,129.022074 C111.163931,129.25918 112.900984,129.381755 114.666667,129.381755 C116.514213,129.381755 118.330415,129.24755 120.106054,128.988356 C121.999309,128.711994 146.881416,215.441123 146.881416,215.346215 C136.679023,218.405011 125.864765,220.048422 114.666667,220.048422 Z"
           id="path24"
           fill="#FFFFFF"
           opacity="0.25"
           transform="translate(114.825810, 113.357544) rotate(-30.000000) translate(-114.825810, -113.357544) " />
      </g>
      <path
         d="M83.16,191.704 C79.64,191.704 76.888,192.888 74.968,195.32 C73.208,197.496 72.344,200.28 72.344,203.672 C72.344,207.064 73.176,209.816 74.904,211.928 C76.792,214.264 79.512,215.448 83.064,215.448 C85.496,215.448 87.608,214.744 89.368,213.368 C91.256,211.896 92.44,209.816 92.952,207.16 L90.424,207.16 C89.976,209.144 89.048,210.648 87.704,211.672 C86.424,212.632 84.888,213.112 83.064,213.112 C80.376,213.112 78.36,212.216 76.952,210.456 C75.608,208.792 74.968,206.52 74.968,203.672 C74.968,200.824 75.64,198.552 76.984,196.824 C78.424,194.968 80.472,194.04 83.128,194.04 C84.92,194.04 86.424,194.456 87.672,195.32 C88.952,196.216 89.784,197.496 90.104,199.16 L92.632,199.16 C92.312,196.888 91.288,195.064 89.56,193.72 C87.832,192.376 85.688,191.704 83.16,191.704 L83.16,191.704 Z M96.6,192.152 L96.6,215 L104.536,215 C108.12,215 110.872,213.944 112.792,211.864 C114.616,209.88 115.544,207.096 115.544,203.576 C115.544,199.992 114.68,197.208 112.984,195.288 C111.128,193.176 108.408,192.152 104.792,192.152 L96.6,192.152 Z M99.224,194.424 L104.376,194.424 C107.384,194.424 109.56,195.192 110.968,196.76 C112.28,198.232 112.952,200.504 112.952,203.576 C112.952,206.552 112.216,208.824 110.808,210.36 C109.304,211.928 107.064,212.728 104.088,212.728 L99.224,212.728 L99.224,194.424 Z M118.488,205.624 L118.488,207.8 L134.648,207.8 L134.648,205.624 L118.488,205.624 Z M138.552,192.152 L138.552,215 L141.176,215 L141.176,205.176 L148.088,205.176 C149.528,205.176 150.616,205.432 151.384,206.008 C152.216,206.584 152.696,207.576 152.824,208.92 L153.112,211.96 C153.208,213.24 153.528,214.232 154.04,215 L156.888,215 C156.216,214.168 155.8,213.048 155.672,211.64 L155.32,208.12 C155.064,205.816 153.848,204.44 151.672,203.96 L151.672,203.896 C152.984,203.576 154.008,202.936 154.776,201.912 C155.48,200.92 155.832,199.8 155.832,198.52 C155.832,196.408 155.128,194.808 153.784,193.72 C152.472,192.664 150.68,192.152 148.408,192.152 L138.552,192.152 Z M141.176,194.424 L148.088,194.424 C149.848,194.424 151.16,194.776 151.992,195.48 C152.76,196.152 153.176,197.208 153.176,198.616 C153.176,199.96 152.76,200.984 151.96,201.72 C151.064,202.488 149.752,202.904 148.088,202.904 L141.176,202.904 L141.176,194.424 Z M158.04,192.152 L164.6,215 L167.512,215 L172.728,195.96 L172.824,195.96 L178.008,215 L180.92,215 L187.48,192.152 L184.536,192.152 L179.512,211.32 L179.384,211.32 L174.2,192.152 L171.352,192.152 L166.136,211.32 L166.008,211.32 L160.984,192.152 L158.04,192.152 Z"
         id="CD-RW"
         fill="#8F859E" />
    </g>
  </g>
</svg>
