<?xml version="1.0" encoding="UTF-8" standalone="no"?>
<svg
   xmlns:dc="http://purl.org/dc/elements/1.1/"
   xmlns:cc="http://creativecommons.org/ns#"
   xmlns:rdf="http://www.w3.org/1999/02/22-rdf-syntax-ns#"
   xmlns:svg="http://www.w3.org/2000/svg"
   xmlns="http://www.w3.org/2000/svg"
   xmlns:sodipodi="http://sodipodi.sourceforge.net/DTD/sodipodi-0.dtd"
   xmlns:inkscape="http://www.inkscape.org/namespaces/inkscape"
   width="256px"
   height="256px"
   viewBox="0 0 256 256"
   version="1.1"
   id="svg30"
   sodipodi:docname="media-dvd.svg"
   inkscape:version="0.92.2pre0 (973e216, 2017-07-25)">
  <circle
     style="opacity:1;fill:#e0e0e0;fill-opacity:1;stroke:none;stroke-width:18.54237366;stroke-linecap:round;stroke-linejoin:round;stroke-miterlimit:4;stroke-dasharray:none;stroke-opacity:1"
     id="circle4263"
     cx="181.01634"
     cy="-1.7819649"
     r="111.25423"
     transform="rotate(45)" />
  <path
     inkscape:connector-curvature="0"
     style="opacity:0.35;fill:#9e9e9e;fill-opacity:1;fill-rule:evenodd;stroke:none;stroke-width:9.27118683px;stroke-linecap:butt;stroke-linejoin:miter;stroke-opacity:1"
     d="M 61.462285,38.607438 A 111.25424,111.25424 0 0 0 32.725235,71.581709 L 129.25785,126.73805 Z"
     id="path4317" />
  <path
     inkscape:connector-curvature="0"
     style="opacity:0.35;fill:#bdbdbd;fill-opacity:1;fill-rule:evenodd;stroke:none;stroke-width:9.27118683px;stroke-linecap:butt;stroke-linejoin:miter;stroke-opacity:1"
     d="M 82.268125,26.040623 A 111.25424,111.25424 0 0 0 47.356385,51.645042 L 129.25785,126.73805 Z"
     id="path4319" />
  <path
     id="path4335"
     d="m 197.05343,214.86809 a 111.25424,111.25424 0 0 0 28.73705,-32.97392 l -96.53263,-55.15612 z"
     style="opacity:0.35;fill:#9e9e9e;fill-opacity:1;fill-rule:evenodd;stroke:none;stroke-width:9.27118683px;stroke-linecap:butt;stroke-linejoin:miter;stroke-opacity:1"
     inkscape:connector-curvature="0" />
  <path
     id="path4337"
     d="m 176.24756,227.43519 a 111.25424,111.25424 0 0 0 34.91187,-25.60425 l -81.90158,-75.09289 z"
     style="opacity:0.35;fill:#bdbdbd;fill-opacity:1;fill-rule:evenodd;stroke:none;stroke-width:9.27118683px;stroke-linecap:butt;stroke-linejoin:miter;stroke-opacity:1"
     inkscape:connector-curvature="0" />
  <path
     style="fill:none;fill-rule:evenodd;stroke:#fafafa;stroke-width:9.27118683px;stroke-linecap:round;stroke-linejoin:round;stroke-opacity:1"
     d="m 171.86991,38.23622 c 16.38932,3.277365 42.61222,29.499988 45.89003,45.889589"
     id="path4377"
     inkscape:connector-curvature="0"
     sodipodi:nodetypes="cc" />
  <path
     sodipodi:nodetypes="cc"
     inkscape:connector-curvature="0"
     id="path4381"
     d="m 86.646075,215.23892 c -16.38922,-3.27735 -42.61212,-29.49999 -45.88997,-45.88957"
     style="fill:none;fill-rule:evenodd;stroke:#fafafa;stroke-width:9.27118683px;stroke-linecap:round;stroke-linejoin:round;stroke-opacity:1" />
  <metadata
     id="metadata34">
    <rdf:RDF>
      <cc:Work
         rdf:about="">
        <dc:format>image/svg+xml</dc:format>
        <dc:type
           rdf:resource="http://purl.org/dc/dcmitype/StillImage" />
      </cc:Work>
    </rdf:RDF>
  </metadata>
  <sodipodi:namedview
     pagecolor="#ffffff"
     bordercolor="#666666"
     borderopacity="1"
     objecttolerance="10"
     gridtolerance="10"
     guidetolerance="10"
     inkscape:pageopacity="0"
     inkscape:pageshadow="2"
     inkscape:window-width="768"
     inkscape:window-height="480"
     id="namedview32"
     showgrid="false"
     inkscape:zoom="0.921875"
     inkscape:cx="128"
     inkscape:cy="128"
     inkscape:window-x="225"
     inkscape:window-y="207"
     inkscape:window-maximized="0"
     inkscape:current-layer="svg30" />
  <!-- Generator: Sketch 39.1 (31720) - http://www.bohemiancoding.com/sketch -->
  <circle
     r="37.084747"
     cy="126.73785"
     cx="129.25787"
     id="circle4265"
     style="opacity:1;fill:#9e9e9e;fill-opacity:1;stroke:none;stroke-width:18.54237366;stroke-linecap:round;stroke-linejoin:round;stroke-miterlimit:4;stroke-dasharray:none;stroke-opacity:1" />
  <title
     id="title2">media-dvd-256px</title>
  <circle
     style="opacity:1;fill:#bdbdbd;fill-opacity:1;stroke:none;stroke-width:18.54237366;stroke-linecap:round;stroke-linejoin:round;stroke-miterlimit:4;stroke-dasharray:none;stroke-opacity:1"
     id="circle4267"
     cx="129.25787"
     cy="126.73785"
     r="27.813559" />
  <desc
     id="desc4">Created with Sketch.</desc>
  <circle
     r="9.2711868"
     cy="126.73785"
     cx="129.25787"
     id="circle4269"
     style="opacity:1;fill:#424242;fill-opacity:1;stroke:none;stroke-width:18.54237366;stroke-linecap:round;stroke-linejoin:round;stroke-miterlimit:4;stroke-dasharray:none;stroke-opacity:1" />
  <defs
     id="defs13">
    <linearGradient
       x1="28.8395889%"
       y1="5.6059543%"
       x2="73.7075197%"
       y2="93.9492692%"
       id="linearGradient-1">
      <stop
         stop-color="#9EC9CE"
         offset="0%"
         id="stop6" />
      <stop
         stop-color="#E6BDDF"
         offset="47.7870472%"
         id="stop8" />
      <stop
         stop-color="#99D6CA"
         offset="100%"
         id="stop10" />
    </linearGradient>
  </defs>
  <g
     id="Page-1"
     stroke="none"
     stroke-width="1"
     fill="none"
     fill-rule="evenodd">
    <g
       id="media-dvd-256px">
      <g
         id="Group"
         transform="translate(13.333333, 14.666667)">
        <g
           id="Group-4"
           transform="translate(77.333333, 76.000000)" />
      </g>
      <path
         d="M98.304,196.152 L98.304,219 L106.24,219 C109.824,219 112.576,217.944 114.496,215.864 C116.32,213.88 117.248,211.096 117.248,207.576 C117.248,203.992 116.384,201.208 114.688,199.288 C112.832,197.176 110.112,196.152 106.496,196.152 L98.304,196.152 Z M100.928,198.424 L106.08,198.424 C109.088,198.424 111.264,199.192 112.672,200.76 C113.984,202.232 114.656,204.504 114.656,207.576 C114.656,210.552 113.92,212.824 112.512,214.36 C111.008,215.928 108.768,216.728 105.792,216.728 L100.928,216.728 L100.928,198.424 Z M118.752,196.152 L127.2,219 L130.432,219 L138.88,196.152 L136,196.152 L128.864,216.152 L128.768,216.152 L121.632,196.152 L118.752,196.152 Z M141.344,196.152 L141.344,219 L149.28,219 C152.864,219 155.616,217.944 157.536,215.864 C159.36,213.88 160.288,211.096 160.288,207.576 C160.288,203.992 159.424,201.208 157.728,199.288 C155.872,197.176 153.152,196.152 149.536,196.152 L141.344,196.152 Z M143.968,198.424 L149.12,198.424 C152.128,198.424 154.304,199.192 155.712,200.76 C157.024,202.232 157.696,204.504 157.696,207.576 C157.696,210.552 156.96,212.824 155.552,214.36 C154.048,215.928 151.808,216.728 148.832,216.728 L143.968,216.728 L143.968,198.424 Z"
         id="DVD"
         fill="#8F859E" />
    </g>
  </g>
</svg>
